<?xml version="1.0" standalone="no"?>
<!DOCTYPE svg PUBLIC "-//W3C//DTD SVG 20010904//EN"
 "http://www.w3.org/TR/2001/REC-SVG-20010904/DTD/svg10.dtd">
<svg version="1.0" xmlns="http://www.w3.org/2000/svg"
 width="836.000000pt" height="924.000000pt" viewBox="0 0 836.000000 924.000000"
 preserveAspectRatio="xMidYMid meet">
<metadata>
Created by potrace 1.16, written by Peter Selinger 2001-2019
</metadata>
<g transform="translate(0.000000,924.000000) scale(0.100000,-0.100000)"
fill="#000000" stroke="none">
<path d="M0 4610 l0 -4590 4180 0 4180 0 0 4590 0 4590 -4180 0 -4180 0 0
-4590z m2365 2878 c50 -11 111 -29 137 -39 26 -11 55 -19 65 -19 10 0 27 -6
38 -14 11 -7 32 -16 48 -20 46 -11 378 -170 482 -231 22 -13 51 -29 64 -35 12
-5 46 -25 75 -44 28 -18 83 -52 123 -75 40 -23 75 -46 78 -51 9 -15 81 -50
103 -50 10 0 45 15 78 33 55 30 65 32 149 31 69 -1 102 -7 137 -23 26 -11 50
-21 53 -21 9 0 68 -43 87 -65 33 -36 66 -110 78 -173 27 -153 -46 -302 -177
-362 -27 -12 -56 -26 -65 -31 -10 -5 -54 -9 -98 -9 -44 0 -88 4 -98 9 -9 5
-39 20 -67 32 -112 51 -192 184 -185 309 7 152 7 150 -28 180 -32 26 -177 115
-254 155 -67 35 -152 77 -183 90 -16 7 -56 25 -87 39 -31 14 -63 26 -70 26 -7
0 -22 7 -32 15 -11 8 -27 15 -35 15 -9 0 -27 6 -41 13 -25 13 -136 50 -264 87
-86 25 -279 28 -341 4 -22 -8 -52 -19 -67 -24 -54 -17 -134 -84 -192 -160 -48
-63 -85 -138 -112 -225 -22 -74 -30 -271 -15 -370 30 -192 37 -221 92 -395 21
-65 27 -84 69 -195 20 -53 214 -455 239 -495 6 -8 35 -60 67 -115 31 -55 76
-130 100 -166 24 -36 44 -70 44 -76 0 -6 3 -13 8 -15 4 -1 51 -68 104 -148 53
-80 125 -182 160 -227 34 -45 78 -102 96 -127 18 -24 43 -55 56 -68 12 -12 53
-59 91 -103 37 -44 118 -133 179 -197 282 -296 362 -382 370 -396 13 -22 164
-174 191 -192 20 -13 100 -86 217 -196 21 -21 48 -36 65 -37 24 -2 28 2 31 25
2 14 -6 47 -17 72 -12 25 -21 60 -21 78 -1 18 -9 51 -20 73 -11 22 -19 56 -20
75 0 20 -6 45 -14 56 -8 12 -18 45 -22 75 -3 30 -12 63 -19 74 -6 11 -15 43
-19 70 -4 28 -14 64 -21 80 -7 17 -16 49 -19 73 -4 24 -13 53 -20 65 -8 12
-16 45 -19 72 -3 28 -13 64 -21 80 -9 17 -16 44 -16 60 0 17 -7 43 -15 59 -8
15 -19 55 -25 88 -5 33 -13 65 -18 71 -6 7 -13 31 -17 55 -14 84 -55 62 -112
-58 -20 -41 -39 -77 -43 -80 -4 -3 -11 -16 -15 -30 -4 -14 -13 -32 -20 -40 -8
-8 -17 -27 -20 -43 -4 -15 -11 -30 -16 -33 -5 -3 -16 -20 -24 -37 -8 -18 -19
-39 -24 -47 -5 -8 -21 -41 -36 -72 -15 -32 -32 -58 -38 -58 -11 0 -83 73 -149
151 -90 106 -124 145 -143 165 -11 11 -41 45 -68 75 -26 31 -64 73 -83 95 -53
57 -66 100 -41 126 7 7 28 45 47 83 18 39 37 72 41 75 4 3 10 17 14 32 4 15
13 32 20 38 8 6 17 24 20 40 3 16 12 34 20 40 8 6 17 24 20 40 3 16 13 34 21
41 8 6 14 19 14 29 0 9 9 29 20 43 11 14 20 31 21 39 0 7 14 36 30 63 32 55
34 59 49 95 5 14 14 32 20 40 5 8 14 26 20 40 5 14 14 32 19 40 5 8 14 26 20
40 6 14 15 32 20 40 5 8 30 59 56 113 26 54 51 100 56 102 4 3 10 18 14 34 3
16 12 35 20 41 8 6 16 24 20 39 3 17 16 33 31 40 17 8 141 11 402 11 442 -1
416 6 431 -105 5 -36 14 -72 19 -78 5 -7 13 -34 17 -62 4 -27 13 -61 20 -75 7
-14 15 -49 19 -79 4 -30 13 -66 20 -80 7 -14 16 -48 19 -76 3 -27 13 -63 21
-80 9 -16 16 -41 16 -55 0 -14 9 -51 20 -83 11 -31 20 -69 20 -84 0 -16 7 -41
15 -56 8 -16 17 -52 21 -80 3 -29 12 -61 19 -72 7 -11 16 -45 20 -75 4 -30 13
-66 20 -80 7 -14 15 -50 19 -80 4 -30 13 -64 20 -75 7 -11 16 -43 19 -72 3
-28 11 -60 16 -70 6 -10 15 -30 21 -45 6 -17 17 -28 28 -28 24 0 59 37 67 72
4 15 13 32 21 39 8 6 14 19 14 29 0 9 9 29 20 43 11 14 20 29 20 34 0 8 81
171 101 203 5 8 13 26 19 40 5 14 14 32 20 40 5 8 14 26 20 40 5 14 14 32 19
40 5 8 14 26 20 40 6 14 15 32 20 40 5 8 21 42 37 75 15 33 31 62 35 65 4 3
10 17 14 32 4 15 13 32 20 38 8 6 17 24 20 40 3 16 12 34 20 40 8 6 17 24 20
40 3 16 13 34 21 41 8 6 14 19 14 29 0 9 9 29 20 43 11 14 20 30 20 36 0 10
43 96 59 115 5 6 12 22 16 36 4 14 13 32 20 40 8 8 16 27 20 42 4 15 13 32 21
39 8 6 14 19 14 29 0 9 9 29 20 43 11 14 20 32 20 40 0 8 11 26 25 41 l24 26
386 0 385 0 0 -24 c0 -13 -7 -29 -15 -36 -8 -7 -15 -20 -15 -30 0 -9 -9 -29
-20 -43 -11 -14 -20 -32 -20 -40 0 -8 -9 -26 -20 -40 -11 -14 -20 -29 -20 -35
0 -5 -22 -51 -50 -103 -56 -105 -55 -104 -70 -139 -5 -14 -14 -32 -19 -40 -5
-8 -14 -26 -20 -40 -6 -14 -15 -32 -20 -40 -5 -8 -14 -26 -20 -40 -6 -14 -15
-32 -20 -40 -9 -14 -122 -248 -135 -280 -3 -8 -10 -22 -16 -30 -5 -8 -14 -26
-20 -40 -5 -14 -14 -32 -19 -40 -5 -8 -14 -26 -20 -40 -6 -14 -15 -32 -20 -40
-5 -8 -21 -41 -36 -73 -15 -31 -31 -60 -36 -62 -4 -3 -10 -18 -14 -34 -3 -16
-12 -35 -20 -41 -8 -6 -17 -24 -20 -40 -3 -16 -12 -34 -20 -40 -7 -6 -16 -26
-19 -44 -4 -19 -13 -39 -21 -46 -8 -7 -15 -20 -15 -30 0 -9 -9 -29 -20 -43
-11 -14 -20 -35 -20 -46 0 -12 -7 -24 -15 -27 -8 -3 -17 -21 -21 -39 -3 -19
-12 -36 -19 -39 -7 -2 -16 -18 -20 -35 -3 -16 -12 -35 -20 -41 -8 -6 -17 -24
-20 -40 -3 -16 -13 -34 -21 -41 -8 -6 -14 -19 -14 -29 0 -9 -9 -29 -20 -43
-11 -14 -20 -31 -20 -39 0 -7 -9 -26 -20 -43 -11 -16 -20 -37 -20 -46 0 -9 -6
-22 -14 -28 -8 -7 -18 -25 -21 -41 -3 -16 -12 -34 -20 -40 -8 -6 -17 -24 -20
-40 -3 -16 -12 -34 -20 -40 -8 -6 -17 -24 -20 -40 -3 -16 -13 -34 -21 -41 -8
-6 -14 -19 -14 -29 0 -9 -9 -27 -20 -40 -11 -13 -20 -31 -20 -40 0 -10 -6 -23
-14 -29 -8 -7 -18 -25 -21 -41 -3 -16 -13 -34 -20 -40 -8 -7 -17 -27 -21 -46
-3 -18 -12 -38 -20 -45 -8 -6 -14 -19 -14 -29 0 -9 -8 -28 -18 -41 -11 -13
-22 -36 -26 -51 -11 -48 -30 -51 -336 -55 -157 -3 -291 -6 -298 -8 -36 -12 45
-91 160 -155 15 -8 52 -31 83 -50 90 -56 128 -79 160 -95 17 -9 48 -27 70 -40
38 -23 66 -37 138 -70 17 -8 39 -20 47 -25 8 -6 26 -14 40 -20 14 -5 32 -14
40 -19 22 -14 101 -48 130 -56 14 -4 34 -14 45 -21 11 -8 26 -14 35 -14 8 0
26 -6 40 -13 47 -24 323 -107 356 -107 13 0 53 -7 91 -16 106 -26 315 -23 423
5 127 34 190 66 271 139 34 31 119 144 119 159 0 3 8 24 19 47 26 56 50 166
56 256 8 97 -4 121 -66 136 -213 53 -290 319 -138 477 27 28 49 59 49 68 0 16
-175 368 -226 454 -13 22 -28 49 -33 61 -5 11 -20 36 -33 55 -12 20 -52 82
-88 138 -36 56 -91 139 -124 184 -80 110 -89 133 -75 197 6 29 18 54 27 57 20
8 49 -25 137 -157 27 -41 52 -77 55 -80 7 -6 50 -66 65 -91 15 -24 63 -99 91
-140 13 -19 24 -38 24 -42 0 -4 15 -29 33 -55 18 -26 38 -58 45 -72 7 -14 24
-45 38 -70 14 -25 48 -87 76 -139 27 -52 54 -101 59 -110 4 -9 22 -46 39 -83
28 -63 33 -68 73 -78 154 -40 227 -109 256 -243 19 -90 -6 -175 -77 -261 -27
-34 -26 -58 9 -265 25 -150 24 -233 -6 -371 -27 -126 -40 -170 -79 -246 -67
-133 -233 -257 -420 -313 -59 -18 -94 -21 -260 -21 -105 1 -211 5 -236 11 -25
5 -76 14 -115 20 -38 5 -83 15 -100 20 -16 6 -55 17 -85 24 -62 15 -140 41
-185 60 -16 7 -55 23 -85 35 -62 25 -95 39 -160 69 -25 11 -56 25 -70 30 -14
6 -32 15 -40 20 -8 6 -44 24 -80 41 -36 17 -96 48 -135 69 -38 22 -98 54 -133
73 -35 18 -68 39 -74 45 -6 7 -16 13 -24 13 -7 0 -19 6 -26 14 -8 7 -29 22
-47 32 -75 43 -285 183 -373 249 -37 27 -86 64 -110 82 -24 17 -59 45 -78 62
-19 17 -72 64 -118 103 -45 40 -211 200 -367 356 -157 155 -291 282 -299 282
-13 0 -61 -86 -164 -295 -29 -60 -62 -127 -73 -147 -10 -20 -19 -44 -19 -52 0
-8 -21 -35 -46 -60 l-46 -46 -378 0 c-208 0 -385 3 -394 6 -9 3 -16 14 -16 23
0 9 128 272 285 585 159 318 285 581 285 595 0 24 -71 143 -130 219 -91 115
-395 558 -444 647 -9 17 -25 44 -36 60 -10 17 -32 55 -49 85 -16 30 -43 80
-59 110 -71 129 -202 409 -202 432 0 7 -7 22 -15 32 -8 11 -15 27 -15 35 0 9
-7 29 -15 45 -21 41 -66 178 -121 371 -18 65 -37 235 -37 330 0 103 22 304 39
358 29 91 94 211 142 263 103 111 248 186 397 205 97 12 310 0 410 -23z"/>
</g>
</svg>
